<svg width="717" height="717" viewBox="0 0 717 717" fill="none" xmlns="http://www.w3.org/2000/svg">
<circle cx="358.433" cy="358.234" r="357.849" fill="#F4F4FA"/>
<path d="M539.83 259.919C526.253 246.375 507.858 238.768 488.681 238.768C469.503 238.768 451.108 246.375 437.531 259.919L356.506 340.945L275.48 259.919C271.898 256.225 269.914 251.27 269.954 246.125C269.994 240.979 272.055 236.056 275.694 232.418C279.332 228.779 284.256 226.717 289.401 226.677C294.546 226.637 299.501 228.622 303.196 232.203L360.608 289.603L397.906 252.306C397.906 252.306 450.084 192.437 484.243 208.204C484.243 208.204 439.358 153.724 389.893 188.514L360.711 215.085L340.532 194.893C333.813 188.173 325.837 182.841 317.058 179.204C308.279 175.566 298.869 173.693 289.366 173.692C270.174 173.689 251.767 181.311 238.195 194.88C224.623 208.449 216.996 226.854 216.994 246.046C216.991 265.238 224.613 283.645 238.182 297.217L356.506 415.541L474.829 297.217C478.537 293.691 483.475 291.753 488.592 291.817C493.708 291.881 498.597 293.942 502.215 297.56C505.833 301.178 507.894 306.067 507.958 311.183C508.022 316.3 506.084 321.238 502.558 324.946L359.451 468.027L216.318 324.933L215.778 324.547C215.778 324.547 182.467 296.51 183.959 253.63C183.959 253.63 135.922 294.362 165.477 347.337L178.609 361.768L179.072 362.218L322.166 505.312L321.87 505.608L359.168 542.905L359.464 542.61L359.759 542.905L397.057 505.608L396.761 505.312L539.83 362.218C553.371 348.639 560.976 330.245 560.976 311.069C560.976 291.892 553.371 273.498 539.83 259.919Z" fill="#2D50EF"/>
</svg>
